<?xml version="1.0" encoding="utf-8"?>
<!-- Generator: Adobe Illustrator 24.0.2, SVG Export Plug-In . SVG Version: 6.00 Build 0)  -->
<svg version="1.1" id="Layer_1" xmlns="http://www.w3.org/2000/svg" xmlns:xlink="http://www.w3.org/1999/xlink" x="0px" y="0px"
	 viewBox="0 0 283.5 198.4" style="enable-background:new 0 0 283.5 198.4;" xml:space="preserve">
<style type="text/css">
	.st0{fill:#00A7FF;}
	.st1{fill:#FF3A44;}
</style>
<image style="overflow:visible;" width="280" height="180" xlink:href="images.png"  transform="matrix(1 0 0 1 2 9.4252)">
</image>
<rect x="428" y="-257.2" width="911.3" height="911.3"/>
<path d="M286.3,92.6V69.5c0-2.2,2.3-3.5,4.2-2.4l20.1,11.6l20.1,11.6c1.9,1.1,1.9,3.8,0,4.9l-20.1,11.6l-20.1,11.6
	c-1.9,1.1-4.2-0.3-4.2-2.4V92.6z"/>
<path class="st0" d="M286.3,95.9V70.6l35,29.8l-31,17.9c-1.6,0.9-4-0.3-4-2.2V95.9z"/>
<g>
	<path class="st1" d="M286.3,115.5l33.8-31.4l10.6,6.1"/>
	<path class="st1" d="M330.6,90.2c1.9,1.1,1.9,3.9-0.4,5.1l-19.9,11.5l-20,11.5c-1.9,1.1-4.5-0.5-4-2.8"/>
</g>
</svg>
